<!-- icon666.com - MILLIONS vector ICONS FREE --><svg version="1.1" id="Capa_1" xmlns="http://www.w3.org/2000/svg" xmlns:xlink="http://www.w3.org/1999/xlink" x="0px" y="0px" viewBox="0 0 426.667 426.667" style="enable-background:new 0 0 426.667 426.667;" xml:space="preserve"><g><g><path d="M405.333,0h-384C8.533,0,0,8.533,0,21.333v384C0,416,8.533,426.667,21.333,426.667h384 c10.667,0,21.333-10.667,21.333-21.333v-384C426.667,8.533,416,0,405.333,0z M85.333,384c-23.467,0-42.667-19.2-42.667-42.667 s19.2-42.667,42.667-42.667S128,317.867,128,341.333S108.8,384,85.333,384z M213.333,256c-23.467,0-42.667-19.2-42.667-42.667 s19.2-42.667,42.667-42.667S256,189.867,256,213.333S236.8,256,213.333,256z M341.333,128c-23.467,0-42.667-19.2-42.667-42.667 s19.2-42.667,42.667-42.667S384,61.867,384,85.333S364.8,128,341.333,128z"></path></g></g></svg>